<svg xmlns="http://www.w3.org/2000/svg" viewBox="0 0 512 512">
  <clipPath id="ca-clip"><circle cx="256" cy="256" r="256"/></clipPath>
  <g clip-path="url(#ca-clip)">
    <rect x="0" y="0" width="128" height="512" fill="#FF0000"/>
    <rect x="128" y="0" width="256" height="512" fill="#FFFFFF"/>
    <rect x="384" y="0" width="128" height="512" fill="#FF0000"/>
    <!-- Maple leaf -->
    <path fill="#FF0000" d="M256 100l-20 60-58-8 38 44-22 18 62-8 0 50 0-50 62 8-22-18 38-44-58 8z"/>
    <path fill="#FF0000" d="M256 116l26 76 28-6-16 28 16 12-40 24-14 42-14-42-40-24 16-12-16-28 28 6z"/>
  </g>
</svg>
