<?xml version="1.0" encoding="UTF-8"?>
<svg xmlns="http://www.w3.org/2000/svg" viewBox="0 0 64 64" width="64" height="64">
  <clipPath id="circle">
    <circle cx="32" cy="32" r="30"/>
  </clipPath>
  <circle cx="32" cy="32" r="30" fill="#00008B"/>
  <g clip-path="url(#circle)">
    <!-- Union Jack canton (simplified) -->
    <rect x="2" y="2" width="28" height="20" fill="#00008B"/>
    <line x1="2" y1="2" x2="30" y2="22" stroke="#fff" stroke-width="3"/>
    <line x1="30" y1="2" x2="2" y2="22" stroke="#fff" stroke-width="3"/>
    <line x1="2" y1="2" x2="30" y2="22" stroke="#C8102E" stroke-width="1.5"/>
    <line x1="30" y1="2" x2="2" y2="22" stroke="#C8102E" stroke-width="1.5"/>
    <line x1="16" y1="2" x2="16" y2="22" stroke="#fff" stroke-width="4"/>
    <line x1="2" y1="12" x2="30" y2="12" stroke="#fff" stroke-width="4"/>
    <line x1="16" y1="2" x2="16" y2="22" stroke="#C8102E" stroke-width="2"/>
    <line x1="2" y1="12" x2="30" y2="12" stroke="#C8102E" stroke-width="2"/>
    <!-- Commonwealth Star -->
    <polygon points="16,30 17.5,34 22,34 18.5,37 19.5,41 16,38.5 12.5,41 13.5,37 10,34 14.5,34" fill="#fff"/>
    <!-- Southern Cross -->
    <polygon points="44,18 45,20.5 47.5,20.5 45.5,22 46,24.5 44,23 42,24.5 42.5,22 40.5,20.5 43,20.5" fill="#fff"/>
    <polygon points="50,28 51,30.5 53.5,30.5 51.5,32 52,34.5 50,33 48,34.5 48.5,32 46.5,30.5 49,30.5" fill="#fff"/>
    <polygon points="44,38 45,40.5 47.5,40.5 45.5,42 46,44.5 44,43 42,44.5 42.5,42 40.5,40.5 43,40.5" fill="#fff"/>
    <polygon points="38,30 39,32.5 41.5,32.5 39.5,34 40,36.5 38,35 36,36.5 36.5,34 34.5,32.5 37,32.5" fill="#fff"/>
    <polygon points="47,35 47.7,36.5 49.5,36.5 48.2,37.5 48.5,39 47,38 45.5,39 45.8,37.5 44.5,36.5 46.3,36.5" fill="#fff"/>
  </g>
  <circle cx="32" cy="32" r="30" fill="none" stroke="#1a1a1a" stroke-width="1"/>
</svg>
