<?xml version="1.0" encoding="UTF-8" standalone="no"?>
<svg xmlns="http://www.w3.org/2000/svg" version="1.1"
     width="439" height="64" viewBox="0 0 439 64">

  <!-- Logo circle (left, 64x64) — black background, blue accent -->
  <svg x="0" y="0" width="64" height="64" viewBox="0 0 512 512">
    <circle cx="256" cy="256" r="220" fill="#000000" stroke="#ffffff" stroke-width="16"/>
    <g transform="translate(256, 256) scale(8.125) translate(-43, -160)">
      <path d="m 33.530148,163.53827 a 9.3221491,9.3221491 0 0 1 -2.205948,-3.96552 13.983223,13.983223 0 0 1 9.887632,-17.12587 21.524999,21.524999 0 0 1 16.549754,2.27683 1.7803804,1.7803804 0 0 1 -1.816132,3.06279 17.964256,17.964256 0 0 0 -13.812034,-1.90022 10.422479,10.422479 0 0 0 -7.369806,12.76488 5.7614049,5.7614049 0 0 0 1.363351,2.45082 1.7803772,1.7803772 0 1 1 -2.596817,2.43629 z" fill="#ffffff"/>
      <path d="m 46.369631,169.57847 a 9.3221491,9.3221491 0 0 1 -3.965502,2.20595 13.983223,13.983223 0 0 1 -17.125881,-9.88764 21.524999,21.524999 0 0 1 2.276847,-16.54975 1.7803766,1.7803766 0 0 1 3.06277,1.81615 17.964256,17.964256 0 0 0 -1.900202,13.81201 10.422479,10.422479 0 0 0 12.764878,7.36983 5.7614049,5.7614049 0 0 0 2.450814,-1.36336 1.780372,1.780372 0 1 1 2.436276,2.59681 z" fill="#0066CC"/>
      <path d="m 52.409852,156.73899 a 9.3221491,9.3221491 0 0 1 2.205949,3.96551 13.983223,13.983223 0 0 1 -9.887633,17.12588 21.524999,21.524999 0 0 1 -16.549754,-2.27685 1.7803723,1.7803723 0 0 1 1.816133,-3.06277 17.964256,17.964256 0 0 0 13.812033,1.9002 10.422479,10.422479 0 0 0 7.369806,-12.76488 5.7614049,5.7614049 0 0 0 -1.363351,-2.45082 1.780372,1.780372 0 1 1 2.596817,-2.43627 z" fill="#ffffff"/>
      <path d="m 39.570369,150.69876 a 9.3221491,9.3221491 0 0 1 3.965502,-2.20595 13.983223,13.983223 0 0 1 17.125881,9.88764 21.524999,21.524999 0 0 1 -2.276847,16.54976 1.780372,1.780372 0 0 1 -3.06277,-1.81613 17.964256,17.964256 0 0 0 1.900202,-13.81204 10.422479,10.422479 0 0 0 -12.764878,-7.3698 5.7614049,5.7614049 0 0 0 -2.450814,1.36334 1.7803735,1.7803735 0 1 1 -2.436276,-2.59682 z" fill="#ffffff"/>
    </g>
  </svg>

  <!-- SIMPLE (#ffffff) — weight: 400, h_scale: 0.936729 -->
  <g style="fill:#ffffff;stroke:none" transform="translate(72,48.848) scale(0.044963,-0.048)">
    <path transform="translate(0,0)" d="M478 594Q441 613 397.0 627.0Q353 641 311 641Q253 641 218.5 614.0Q184 587 184 542Q184 508 206.0 484.5Q228 461 264.0 444.0Q300 427 339 412Q373 399 406.0 383.0Q439 367 465.5 343.0Q492 319 507.5 284.0Q523 249 523 197Q523 140 494.5 93.0Q466 46 413.0 19.0Q360 -8 287 -8Q239 -8 195.5 3.0Q152 14 115.0 31.5Q78 49 49 68L92 144Q116 127 147.0 111.5Q178 96 212.0 86.5Q246 77 278 77Q312 77 345.5 89.5Q379 102 401.0 128.0Q423 154 423 197Q423 234 403.5 258.5Q384 283 352.0 300.5Q320 318 284 332Q250 345 215.0 360.5Q180 376 150.0 398.5Q120 421 102.0 454.0Q84 487 84 534Q84 591 111.5 633.5Q139 676 187.0 700.5Q235 725 297 727Q367 727 420.5 710.0Q474 693 515 668Z"/>
    <path transform="translate(582,0)" d="M104 723H201V0H104Z"/>
    <path transform="translate(887,0)" d="M104 0V746H105L484 208L443 216L821 746H823V0H727V526L733 477L460 91H458L181 477L198 522V0Z"/>
    <path transform="translate(1814,0)" d="M297 723Q376 723 432.0 696.5Q488 670 518.5 620.0Q549 570 549 499Q549 456 536.0 414.5Q523 373 494.5 339.5Q466 306 420.0 286.0Q374 266 308 266H201V0H104V723ZM307 359Q350 359 378.0 373.0Q406 387 422.0 408.5Q438 430 445.0 454.0Q452 478 452 497Q452 519 445.0 542.5Q438 566 421.5 585.5Q405 605 378.5 617.5Q352 630 313 630H201V359Z"/>
    <path transform="translate(2409,0)" d="M104 723H201V93H568V0H104Z"/>
    <path transform="translate(3031,0)" d="M104 723H574V630H201V410H534V317H201V93H588V0H104Z"/>
  </g>
  <!-- GLOBAL (#0066CC) — weight: 400, h_scale: 0.973875 -->
  <g style="fill:#0066CC;stroke:none" transform="translate(239.599,48.848) scale(0.046746,-0.048)">
    <path transform="translate(0,0)" d="M670 62Q655 49 628.0 36.5Q601 24 568.5 14.0Q536 4 501.5 -2.0Q467 -8 437 -8Q350 -8 280.5 19.0Q211 46 161.5 94.0Q112 142 85.5 207.0Q59 272 59 348Q59 438 88.5 509.5Q118 581 169.5 630.5Q221 680 288.0 705.5Q355 731 430 731Q493 731 547.0 716.0Q601 701 642 678L609 589Q589 601 559.5 611.0Q530 621 499.0 627.5Q468 634 441 634Q377 634 325.0 614.5Q273 595 236.0 558.5Q199 522 179.0 470.5Q159 419 159 355Q159 296 179.0 247.0Q199 198 236.0 162.5Q273 127 324.5 107.5Q376 88 438 88Q475 88 511.0 95.5Q547 103 573 117V261H429V354H670Z"/>
    <path transform="translate(751,0)" d="M104 723H201V93H568V0H104Z"/>
    <path transform="translate(1373,0)" d="M59 361Q59 436 87.5 502.5Q116 569 167.0 620.5Q218 672 284.5 701.5Q351 731 428 731Q504 731 570.5 701.5Q637 672 688.5 620.5Q740 569 769.0 502.5Q798 436 798 361Q798 284 769.0 217.0Q740 150 688.5 99.5Q637 49 570.5 20.5Q504 -8 428 -8Q351 -8 284.5 20.0Q218 48 167.0 98.0Q116 148 87.5 215.0Q59 282 59 361ZM159 360Q159 303 180.0 253.5Q201 204 238.0 166.0Q275 128 324.0 106.5Q373 85 430 85Q486 85 535.0 106.5Q584 128 620.0 166.0Q656 204 677.0 253.5Q698 303 698 361Q698 418 677.0 468.5Q656 519 619.0 557.0Q582 595 533.0 616.5Q484 638 428 638Q371 638 322.0 616.0Q273 594 236.0 556.0Q199 518 179.0 467.5Q159 417 159 360Z"/>
    <path transform="translate(2230,0)" d="M290 723Q399 723 461.5 678.5Q524 634 524 540Q524 483 498.0 441.0Q472 399 425.5 375.0Q379 351 316 348L302 398Q375 396 433.0 372.0Q491 348 525.0 305.0Q559 262 559 203Q559 149 539.0 110.5Q519 72 485.0 47.5Q451 23 408.0 11.5Q365 0 319 0H104V723ZM310 406Q370 406 397.0 439.5Q424 473 424 521Q424 578 389.0 604.0Q354 630 295 630H201V406ZM314 90Q354 90 387.5 102.0Q421 114 440.5 139.0Q460 164 460 202Q460 244 437.5 268.0Q415 292 380.0 302.5Q345 313 308 313H201V90Z"/>
    <path transform="translate(2848,0)" d="M32 0 348 753H354L669 0H558L322 601L391 646L127 0ZM217 274H486L518 190H189Z"/>
    <path transform="translate(3549,0)" d="M104 723H201V93H568V0H104Z"/>
  </g>
</svg>