<?xml version="1.0" encoding="UTF-8" standalone="no"?>
<svg xmlns="http://www.w3.org/2000/svg" version="1.1"
     width="444" height="64" viewBox="0 0 444 64">

  <!-- Logo circle (left, 64x64) -->
  <svg x="0" y="0" width="64" height="64" viewBox="0 0 512 512">
    <circle cx="256" cy="256" r="220" fill="#000000" stroke="#ffffff" stroke-width="16"/>
    <g transform="translate(256, 256) scale(8.125) translate(-43, -160)">
      <path d="m 33.530148,163.53827 a 9.3221491,9.3221491 0 0 1 -2.205948,-3.96552 13.983223,13.983223 0 0 1 9.887632,-17.12587 21.524999,21.524999 0 0 1 16.549754,2.27683 1.7803804,1.7803804 0 0 1 -1.816132,3.06279 17.964256,17.964256 0 0 0 -13.812034,-1.90022 10.422479,10.422479 0 0 0 -7.369806,12.76488 5.7614049,5.7614049 0 0 0 1.363351,2.45082 1.7803772,1.7803772 0 1 1 -2.596817,2.43629 z" fill="#ffffff"/>
      <path d="m 46.369631,169.57847 a 9.3221491,9.3221491 0 0 1 -3.965502,2.20595 13.983223,13.983223 0 0 1 -17.125881,-9.88764 21.524999,21.524999 0 0 1 2.276847,-16.54975 1.7803766,1.7803766 0 0 1 3.06277,1.81615 17.964256,17.964256 0 0 0 -1.900202,13.81201 10.422479,10.422479 0 0 0 12.764878,7.36983 5.7614049,5.7614049 0 0 0 2.450814,-1.36336 1.780372,1.780372 0 1 1 2.436276,2.59681 z" fill="#00d528"/>
      <path d="m 52.409852,156.73899 a 9.3221491,9.3221491 0 0 1 2.205949,3.96551 13.983223,13.983223 0 0 1 -9.887633,17.12588 21.524999,21.524999 0 0 1 -16.549754,-2.27685 1.7803723,1.7803723 0 0 1 1.816133,-3.06277 17.964256,17.964256 0 0 0 13.812033,1.9002 10.422479,10.422479 0 0 0 7.369806,-12.76488 5.7614049,5.7614049 0 0 0 -1.363351,-2.45082 1.780372,1.780372 0 1 1 2.596817,-2.43627 z" fill="#ffffff"/>
      <path d="m 39.570369,150.69876 a 9.3221491,9.3221491 0 0 1 3.965502,-2.20595 13.983223,13.983223 0 0 1 17.125881,9.88764 21.524999,21.524999 0 0 1 -2.276847,16.54976 1.780372,1.780372 0 0 1 -3.06277,-1.81613 17.964256,17.964256 0 0 0 1.900202,-13.81204 10.422479,10.422479 0 0 0 -12.764878,-7.3698 5.7614049,5.7614049 0 0 0 -2.450814,1.36334 1.7803735,1.7803735 0 1 1 -2.436276,-2.59682 z" fill="#ffffff"/>
    </g>
  </svg>

  <!-- SIMPLE (#ffffff) — weight: 400, h_scale: 0.936736 -->
  <g style="fill:#ffffff;stroke:none" transform="translate(72,48.848) scale(0.044963,-0.048000)">
    <path transform="translate(0,0)" d="M477.99920653812586 594.002856462747Q441.49964294215664 613.0025390779973 397.24958343251603 627.00245973181Q352.9995239228755 641.0023803856225 311.49924621121954 641.0023803856225Q252.99833373006427 641.0023803856225 218.49773863365866 614.0017456161231Q183.99714353725304 587.0011108466239 183.99714353725304 541.5005157502183Q183.99714353725304 508.4999603269063 206.24728239308104 484.99972228834406Q228.497421248909 461.4994842497818 264.2476791240181 444.24938506704757Q299.9979369991272 426.9992858843133 339.49829405697056 411.99912719193844Q372.99841307625167 399.4990875188447 405.9985320955328 383.2491073553916Q438.9986511148139 366.99912719193844 465.498770134095 343.249186701579Q491.9988891533762 319.49924621121954 507.7489486630168 284.24934539395383Q523.4990081726573 248.9994445766881 523.4990081726573 197.49956359596922Q523.4990081726573 139.9994445766881 494.999047845751 93.24954375942235Q466.4990875188447 46.499642942156626 413.49932555740696 19.249821471078313Q360.4995635959692 -8 286.5001983654685 -8Q238.99976196143774 -8 195.49976196143774 2.750178528921685Q151.99976196143774 13.50035705784337 114.75013885582797 31.000357057843374Q77.5005157502182 48.500357057843374 48.50130921209236 67.99976196143776L91.99968261525034 144.49686582559707Q115.99952392287551 126.9969848448782 146.99956359596922 111.74692533523765Q177.99960326906293 96.49686582559708 211.99984130762516 86.99674680631597Q246.00007934618742 77.49662778703484 277.5005157502182 77.49662778703484Q312.00119019281124 77.49662778703484 345.5017456161231 89.74700468142507Q379.00230103943505 101.9973815758153 401.0026580972784 128.24803618186147Q423.0030151551218 154.49869078790763 423.0030151551218 196.9995239228755Q423.0030151551218 233.50067444259304 403.25259858763786 258.25121002935805Q383.50218202015395 283.0017456161231 351.7516067602952 300.5019439815917Q320.0010315004364 318.0021423470602 283.5004364040308 331.50234071252873Q249.50043640403078 344.50234071252873 214.5005157502182 360.25224152979445Q179.50059509640562 376.0021423470602 149.7507339522336 398.5019836546854Q120.00087280806157 421.00182496231054 102.00099182734269 453.7515274141077Q84.00111084662382 486.5012298659049 84.00111084662382 533.5007537887805Q84.00111084662382 591.0002380385622 111.25101166388954 633.4998809807189Q138.50091248115527 675.9995239228755 186.75061493295246 700.4992858843132Q235.00031738474965 724.999047845751 297.4998809807189 726.9989684995636Q366.99833373006425 726.9989684995636 420.4981750376894 709.9992858843133Q473.9980163453146 692.999603269063 514.9977783067524 668.4999603269063Z"/>
    <path transform="translate(582,0)" d="M104.00071411568675 722.9989684995636H200.9969054986908V0H104.00071411568675Z"/>
    <path transform="translate(887,0)" d="M104.00071411568675 0V745.9984130762517H105.00071411568675L484.498373403158 207.50170594302944L443 216.00126953899866L821.4976592874713 745.9984130762517H822.9976196143775V0H726.5014679044672V526.0069031183052L733.0012695389986 476.5089264460843L460.4994049035944 91.00642704118067H458.4994049035944L181.49773863365866 476.5089264460843L197.99706419106562 522.0070618106799V0Z"/>
    <path transform="translate(1814,0)" d="M297.498373403158 722.9989684995636Q375.99738157581527 722.9989684995636 432.24684598905026 696.4992858843133Q488.4963104022852 669.999603269063 518.7460922002698 620.0000396730937Q548.9958739982544 570.0004760771245 548.9958739982544 498.5008331349679Q548.9958739982544 456.0010315004364 535.995913671348 414.5013488851861Q522.9959533444418 373.00166626993575 494.4960326906292 339.5019439815917Q465.9961120368166 306.00222169324763 419.99638974847255 285.7524002221693Q373.99666746012855 265.502578751091 307.997143537253 265.502578751091H200.9969054986908V0H104.00071411568675V722.9989684995636ZM307.49718321034675 359.4988494802825Q349.9979369991272 359.4988494802825 378.24843291279853 373.499047845751Q406.49892882646986 387.49924621121954 422.4992065381258 408.9995635959692Q438.4994842497818 430.4998809807189 445.49960326906296 454.00023803856226Q452.49972228834406 477.5005950964056 452.49972228834406 496.5009918273427Q452.49972228834406 519.001904308498 445.24942474014125 542.2522812028882Q437.99912719193844 565.5026580972784 421.7487106244545 585.252717606919Q405.49829405697056 605.0027771165595 378.747956835674 617.252717606919Q351.9976196143775 629.5026580972784 312.9975402681901 629.5026580972784H200.9969054986908V359.4988494802825Z"/>
    <path transform="translate(2409,0)" d="M104.00071411568675 722.9989684995636H200.9969054986908V93.49631040228518H568.4986114417202V0H104.00071411568675Z"/>
    <path transform="translate(3031,0)" d="M104.00071411568675 722.9989684995636H573.9981750376894V629.5026580972784H200.9969054986908V409.99769896056495H533.9982543838769V316.50138855827976H200.9969054986908V93.49631040228518H587.9981750376894V0H104.00071411568675Z"/>
  </g>
  <!-- GLOBAL (#00d528) — weight: 400, h_scale: 1.018940 -->
  <g style="fill:#00d528;stroke:none" transform="translate(239.520,48.848) scale(0.048909,-0.048000)">
    <path transform="translate(0,0)" d="M670.4982940569705 61.99904784575101Q654.998095691502 48.99912719193843 628.2481948742363 36.49928588431326Q601.4982940569705 23.99944457668809 568.7485916051733 13.999603269062922Q535.9988891533761 3.999761961437753 501.749186701579 -2.0001190192811236Q467.4994842497818 -8 436.99976196143774 -8Q350 -8 280.25017852892165 19.000039673093706Q210.50035705784336 46.00007934618741 161.0004760771245 94.00011901928113Q111.50059509640562 142.00015869237484 85.25065460604618 206.75013885582797Q59.00071411568674 271.5001190192811 59.00071411568674 347.5000396730937Q59.00071411568674 438.49924621121954 88.50063476949933 509.7489883361105Q118.00055542331191 580.9987304610014 169.25045624057765 630.4987304610014Q220.50035705784336 679.9987304610014 287.7502578751091 705.4988494802825Q355.00015869237484 730.9989684995636 429.5001190192811 730.9989684995636Q492.9995239228755 730.9989684995636 547.2491470284853 716.2490280092042Q601.498770134095 701.4990875188447 641.9987304610014 677.999047845751L609.4998809807189 588.5026580972784Q588.9996826152503 600.5028167896533 559.4997222883441 610.7528366262002Q529.9997619614378 621.002856462747 499.2497817979846 627.2528366262002Q468.4998016345315 633.5028167896533 441.4995635959692 633.5028167896533Q377.49924621121954 633.5028167896533 325.498770134095 614.00245973181Q273.49829405697056 594.5021026739665 236.24783781639292 558.0015869237484Q198.9973815758153 521.5010711735301 178.99706419106565 470.25053558676507Q158.99674680631597 419 158.99674680631597 355.49964294215664Q158.99674680631597 296.4990875188447 179.24692533523765 247.49849242243909Q199.49710386415933 198.4978973260335 236.49746092200272 162.74736173926843Q273.4978179798461 126.99682615250337 324.7483535666112 107.74648893120685Q375.9988891533762 88.49615170991034 438.4995635959692 88.49615170991034Q475 88.49615170991034 511.00079346187414 95.74636991192574Q547.0015869237483 102.99658811394113 572.5021820201539 117.49694517178449V260.5012298659049H429.00087280806156V353.9975402681901H670.4982940569705Z"/>
    <path transform="translate(751,0)" d="M104.00071411568675 722.9989684995636H200.9969054986908V93.49631040228518H568.4986114417202V0H104.00071411568675Z"/>
    <path transform="translate(1373,0)" d="M59.00071411568674 360.7380190761693Q59.00071411568674 435.9994445766881 87.50067444259304 502.74934539395383Q116.00063476949933 569.4992462112195 166.75057525985875 620.9991668650321Q217.5005157502182 672.4990875188447 284.3511439836467 701.7490280092042Q351.2017722170752 730.9989684995636 427.6009257816313 730.9989684995636Q503.5001190192811 730.9989684995636 570.4257979749051 701.7280586035583Q637.3514769305291 672.457148707553 688.6756194459834 620.9781974593863Q739.9997619614378 569.4992462112195 768.9997222883441 502.74934539395383Q797.9996826152503 435.9994445766881 797.9996826152503 360.6002116659446Q797.9996826152503 284.20105810138847 768.9997222883441 217.35042986795997Q739.9997619614378 150.49980163453145 688.749861144172 99.74986114417202Q637.4999603269063 48.99992065381259 570.5324163425746 20.499960326906294Q503.5648723582429 -8 427.53257503494945 -8Q351.0003173847497 -8 284.25041656748397 19.999920653812584Q217.5005157502182 47.99984130762517 166.75057525985875 98.2497421248909Q116.00063476949933 148.49964294215664 87.50067444259304 215.4810108872502Q59.00071411568674 282.46237883234375 59.00071411568674 360.7380190761693ZM158.99674680631597 360.21976857057996Q158.99674680631597 302.99880980718876 179.84423461785997 253.27601452916855Q200.69172242940394 203.55321925114833 237.8449487335467 165.77502270182586Q274.99817503768946 127.99682615250337 324.03694110150684 106.74656827739427Q373.07570716532416 85.49631040228518 429.5743937133592 85.49631040228518Q486.0007141156867 85.49631040228518 534.7513687217329 106.74656827739427Q583.502023327779 127.99682615250337 619.9383447956407 165.80396990979204Q656.3746662635023 203.61111366708073 677.1891580940617 253.37219396208855Q698.0036499246211 303.13327425709633 698.0036499246211 360.5485077471439Q698.0036499246211 418.0000793461874 677.0033722129651 468.25065460604617Q656.0030945013092 518.501229865905 619.2097630212365 556.5050449163755Q582.4164315411638 594.5088599668461 533.4236645287585 616.0057590320623Q484.43089751635335 637.5026580972784 428.00015869237484 637.5026580972784Q370.7590073819601 637.5026580972784 321.86552397098086 615.8450831374639Q272.97204056000163 594.1875081776493 236.2346515582679 555.8443293486835Q199.49726255653417 517.5011505197175 179.24700468142507 467.2534490510834Q158.99674680631597 417.0057475824494 158.99674680631597 360.21976857057996Z"/>
    <path transform="translate(2230,0)" d="M290.498373403158 722.9989684995636Q399.49789732603347 722.9989684995636 461.7474410854558 678.4991271919384Q523.9969848448782 633.9992858843133 523.9969848448782 540.4991668650322Q523.9969848448782 483 498.24759977783066 440.7502578751091Q472.49821471078315 398.5005157502182 425.9990875188447 374.75041656748397Q379.4999603269063 351.0003173847497 316.00079346187414 347.5000396730937L302.0015075775609 398.49789732603347Q375.0000793461874 396.4977386336586 432.9990875188447 372.2477981432992Q490.99809569150204 347.9978576529398 525.247560104737 304.9981353645957Q559.4970245179719 261.99841307625167 559.4970245179719 202.99888915337618Q559.4970245179719 148.99936523050067 539.4971435372531 110.49960326906293Q519.4972625565342 71.99984130762518 485.49746092200274 47.49992065381259Q451.49765928747127 23 408.49789732603347 11.5Q365.4981353645957 0 318.99833373006425 0H104.00071411568675V722.9989684995636ZM310.49861144172024 406.4977386336586Q369.9999206538126 406.4977386336586 397.0004364040308 439.99833373006425Q424.000952154249 473.49892882646986 424.000952154249 520.5000396730937Q424.000952154249 577.5015472506547 389.0001983654686 603.5021026739665Q353.9994445766881 629.5026580972784 294.9981750376894 629.5026580972784H200.9969054986908V406.4977386336586ZM314.4985320955328 89.99642942156629Q354.4991668650321 89.99642942156629 387.49972228834406 101.99670713322224Q420.50027771165594 113.9969848448782 440.00063476949936 139.24752043164324Q459.5009918273427 164.4980560184083 459.5009918273427 201.99880980718876Q459.5009918273427 243.99960326906293 437.00063476949936 268.0001983654685Q414.50027771165594 292.00079346187414 379.7497817979846 302.5011108466238Q344.9992858843133 313.0014282313735 307.99880980718876 313.0014282313735H200.9969054986908V89.99642942156629Z"/>
    <path transform="translate(2848,0)" d="M31.501547250654603 0 347.50027771165594 752.999047845751H353.5001190192811L669.4988494802825 0H558.0033325398715L321.50138855827976 600.5049591367135L390.9985717686265 646.002856462747L127.49781797984608 0ZM217.49829405697056 273.5005950964056H485.5020233277791L518.0005554233119 189.5036102515274H188.99960326906293Z"/>
    <path transform="translate(3549,0)" d="M104.00071411568675 722.9989684995636H200.9969054986908V93.49631040228518H568.4986114417202V0H104.00071411568675Z"/>
  </g>
</svg>