<?xml version="1.0" encoding="UTF-8" standalone="no"?>
<svg xmlns="http://www.w3.org/2000/svg" version="1.1"
     width="444" height="64" viewBox="0 0 444 64">

  <!-- Logo circle (left, 64x64) -->
  <svg x="0" y="0" width="64" height="64" viewBox="0 0 512 512">
    <circle cx="256" cy="256" r="220" fill="#000000" stroke="#ffffff" stroke-width="16"/>
    <g transform="translate(256, 256) scale(8.125) translate(-43, -160)">
      <path d="m 33.530148,163.53827 a 9.3221491,9.3221491 0 0 1 -2.205948,-3.96552 13.983223,13.983223 0 0 1 9.887632,-17.12587 21.524999,21.524999 0 0 1 16.549754,2.27683 1.7803804,1.7803804 0 0 1 -1.816132,3.06279 17.964256,17.964256 0 0 0 -13.812034,-1.90022 10.422479,10.422479 0 0 0 -7.369806,12.76488 5.7614049,5.7614049 0 0 0 1.363351,2.45082 1.7803772,1.7803772 0 1 1 -2.596817,2.43629 z" fill="#ffffff"/>
      <path d="m 46.369631,169.57847 a 9.3221491,9.3221491 0 0 1 -3.965502,2.20595 13.983223,13.983223 0 0 1 -17.125881,-9.88764 21.524999,21.524999 0 0 1 2.276847,-16.54975 1.7803766,1.7803766 0 0 1 3.06277,1.81615 17.964256,17.964256 0 0 0 -1.900202,13.81201 10.422479,10.422479 0 0 0 12.764878,7.36983 5.7614049,5.7614049 0 0 0 2.450814,-1.36336 1.780372,1.780372 0 1 1 2.436276,2.59681 z" fill="#00d528"/>
      <path d="m 52.409852,156.73899 a 9.3221491,9.3221491 0 0 1 2.205949,3.96551 13.983223,13.983223 0 0 1 -9.887633,17.12588 21.524999,21.524999 0 0 1 -16.549754,-2.27685 1.7803723,1.7803723 0 0 1 1.816133,-3.06277 17.964256,17.964256 0 0 0 13.812033,1.9002 10.422479,10.422479 0 0 0 7.369806,-12.76488 5.7614049,5.7614049 0 0 0 -1.363351,-2.45082 1.780372,1.780372 0 1 1 2.596817,-2.43627 z" fill="#ffffff"/>
      <path d="m 39.570369,150.69876 a 9.3221491,9.3221491 0 0 1 3.965502,-2.20595 13.983223,13.983223 0 0 1 17.125881,9.88764 21.524999,21.524999 0 0 1 -2.276847,16.54976 1.780372,1.780372 0 0 1 -3.06277,-1.81613 17.964256,17.964256 0 0 0 1.900202,-13.81204 10.422479,10.422479 0 0 0 -12.764878,-7.3698 5.7614049,5.7614049 0 0 0 -2.450814,1.36334 1.7803735,1.7803735 0 1 1 -2.436276,-2.59682 z" fill="#ffffff"/>
    </g>
  </svg>

  <!-- SIMPLE (#ffffff) — weight: 500, h_scale: 0.930421 -->
  <g style="fill:#ffffff;stroke:none" transform="translate(72,48.848) scale(0.044660,-0.048000)">
    <path transform="translate(0,0)" d="M480.0003173847497 586.7988574149012Q442.40014282313734 606.5989843688011 398.3001666269936 620.799016107276Q354.20019043084983 634.999047845751 313.4003015155122 634.999047845751Q257.2006665079743 634.999047845751 224.20090454653655 609.5993017535507Q191.2011425850988 584.1995556613505 191.2011425850988 540.1997936999127Q191.2011425850988 508.6000158692375 213.1010870427676 485.70011108466235Q235.0010315004364 462.80020630008727 270.1009283503928 445.80024597318095Q305.20082520034913 428.8002856462747 343.8006823772118 414.2003491232246Q377.00063476949936 401.8003649924621 409.70058716178687 385.50035705784336Q442.40053955407444 369.2003491232246 468.600491946362 345.3003253193684Q494.8004443386495 321.4003015155122 510.4004205347933 285.90026184241844Q526.000396730937 250.40022216932476 526.000396730937 198.6001745616123Q526.000396730937 141.40022216932476 497.40038086169955 94.40018249623105Q468.8003649924621 47.40014282313735 415.2002697770372 19.700071411568675Q361.60017456161233 -8 285.9999206538126 -8Q239.60009521542491 -8 196.10009521542491 2.2999285884313263Q152.60009521542491 12.599857176862653 114.39994445766882 30.09985717686265Q76.19979369991272 47.59985717686265 45.199476315163054 68.6000952154249L92.80012695389986 152.40125366976116Q117.2001904308498 134.60120606204873 148.10017456161233 119.50122986590495Q179.00015869237484 104.40125366976118 212.40006347694992 95.20130127747362Q245.79996826152504 86.00134888518606 276.19979369991273 86.00134888518606Q308.9995239228755 86.00134888518606 341.0993017535507 97.30119812742998Q373.19907958422596 108.60104736967389 394.2989367610886 133.20078552725542Q415.39879393795127 157.80052368483695 415.39879393795127 198.2001904308498Q415.39879393795127 231.79973022296278 396.69896056494485 255.19951598825673Q377.99912719193844 278.5993017535507 347.69935729588195 295.5992224073633Q317.39958739982546 312.59914306117594 282.39982543838767 325.59906371498846Q248.3998254383877 338.59906371498846 213.19979369991273 354.5991033880822Q177.99976196143774 370.59914306117594 147.89970641910656 393.49920653812586Q117.79965087677537 416.3992700150758 99.49960326906293 449.8993890343569Q81.19955566135047 483.39950805363804 81.19955566135047 531.5996984844878Q81.19955566135047 590.3999047845751 108.69959533444418 633.8000476077125Q136.1996350075379 677.2001904308498 185.199754026819 702.3002856462747Q234.19987304610012 727.4003808616995 297.80004760771243 729.6004126001745Q371.2006665079743 729.6004126001745 425.1007299849242 711.8002856462747Q479.00079346187414 694.0001586923748 520.600888677299 668.6000158692375Z"/>
    <path transform="translate(582,0)" d="M102.19971435372531 725.6004126001745H208.8012378005237V0H102.19971435372531Z"/>
    <path transform="translate(893,0)" d="M102.19971435372531 0V750.0006347694994H103.19971435372531L488.6006506387368 203.19931762278821L443 212.79949218440055L827.4009362850115 750.0006347694994H829.000952154249V0H722.7994128382131V508.5972387526779L729.7994921844005 453.9964294215663L462.00023803856226 74.79742918352773H460.00023803856226L187.20090454653655 453.9964294215663L205.40117432357374 504.197175275728V0Z"/>
    <path transform="translate(1824,0)" d="M301.6006506387368 725.6004126001745Q382.6010473696739 725.6004126001745 440.2012616043799 698.3002856462747Q497.8014758390859 671.0001586923748 528.601563119892 619.8999841307625Q559.4016504006983 568.7998095691502 559.4016504006983 496.3996667460128Q559.4016504006983 453.39958739982546 546.3016345314608 411.0994604459256Q533.2016186622233 368.7993334920257 504.5015869237483 334.5992224073633Q475.80155518527334 300.39911132270095 429.10144410061093 279.6990399111323Q382.4013330159486 258.9989684995636 315.2011425850988 258.9989684995636H208.8012378005237V0H102.19971435372531V725.6004126001745ZM314.6011267158613 362.400460207887Q355.20082520034913 362.400460207887 382.2006268348806 375.9003808616996Q409.20042846941203 389.4003015155122 424.5003173847497 410.10017456161233Q439.80020630008727 430.80004760771243 446.50015869237484 453.3999047845751Q453.20011108466235 475.99976196143774 453.20011108466235 493.9996032690629Q453.20011108466235 514.1992382766008 446.70023010394345 536.4990875188447Q440.2003491232246 558.7989367610886 425.0005157502182 578.3989129572324Q409.8006823772118 597.9988891533761 383.9008172657304 610.3989129572324Q358.000952154249 622.7989367610886 319.20098389272397 622.7989367610886H208.8012378005237V362.400460207887Z"/>
    <path transform="translate(2427,0)" d="M102.19971435372531 725.6004126001745H208.8012378005237V102.80147583908594H572.0005554233119V0H102.19971435372531Z"/>
    <path transform="translate(3053,0)" d="M102.19971435372531 725.6004126001745H578.6007299849242V622.7989367610886H208.8012378005237V415.80092041577404H538.4006982464492V312.9994445766881H208.8012378005237V102.80147583908594H592.6007299849242V0H102.19971435372531Z"/>
  </g>
  <!-- GLOBAL (#00d528) — weight: 500, h_scale: 1.015289 -->
  <g style="fill:#00d528;stroke:none" transform="translate(239.520,48.848) scale(0.048734,-0.048000)">
    <path transform="translate(0,0)" d="M674.8006823772117 64.4003808616996Q659.8007617233992 51.20034912322463 632.8007220503055 38.3002856462747Q605.8006823772117 25.400222169324763 572.3005633579306 15.000158692374832Q538.8004443386495 4.600095215424899 503.8003253193684 -1.6999523922875506Q468.80020630008727 -8 437.6000952154249 -8Q350 -8 279.7999285884313 18.899984130762515Q209.59985717686266 45.79996826152503 159.7998095691502 93.69995239228756Q109.99976196143776 141.59993652305008 83.59973815758153 206.39994445766882Q57.199714353725305 271.19995239228757 57.199714353725305 347.3999841307625Q57.199714353725305 440.4003015155122 86.89974609220027 512.3004046655558Q116.59977783067524 584.2005078155995 168.09981750376895 633.7005078155995Q219.59985717686266 683.2005078155995 287.0998968499564 708.400460207887Q354.5999365230501 733.6004126001745 429.19995239228757 733.6004126001745Q494.2001904308498 733.6004126001745 549.4003411886059 718.7003887963183Q604.600491946362 703.8003649924622 645.2005078155995 680.4003808616995L609.8000476077125 581.7989367610886Q589.8001269538998 593.3988732841387 560.2001110846624 603.59886534952Q530.6000952154249 613.7988574149012 499.8000872808061 620.09886534952Q469.0000793461874 626.3988732841387 442.60017456161233 626.3988732841387Q379.4003015155122 626.3988732841387 328.600491946362 607.7990161072761Q277.8006823772118 589.1991589304134 241.70086487344284 553.9993652305006Q205.6010473696739 518.799571530588 186.40117432357374 468.899785765294Q167.20130127747362 419 167.20130127747362 356.40014282313734Q167.20130127747362 298.8003649924621 187.00122986590495 251.30060303102437Q206.80115845433627 203.8008410695866 242.9010156311989 169.40105530429264Q279.00087280806156 135.00126953899866 328.90065857335554 116.60140442751727Q378.8004443386495 98.20153931603588 439.60017456161233 98.20153931603588Q475 98.20153931603588 508.9996826152503 104.90145203522971Q542.9993652305006 111.60136475442356 566.9991271919384 125.20122193128621V257.39950805363804H426.7996508767754V360.20098389272397H674.8006823772117Z"/>
    <path transform="translate(754,0)" d="M102.19971435372531 725.6004126001745H208.8012378005237V102.80147583908594H572.0005554233119V0H102.19971435372531Z"/>
    <path transform="translate(1380,0)" d="M57.199714353725305 361.99101145080436Q57.199714353725305 437.40022216932476 85.7997302229628 504.40026184241844Q114.39974609220027 571.4003015155122 165.2997698960565 623.1003332539872Q216.19979369991273 674.8003649924622 283.28040571589383 704.2003887963183Q350.36101773187494 733.6004126001745 427.0804929967 733.6004126001745Q503.19995239228757 733.6004126001745 570.3405978406056 704.183615268254Q637.4812432889237 674.7668179363336 689.0406692521742 623.0835597259229Q740.6000952154249 571.4003015155122 769.7001110846624 504.40026184241844Q798.8001269538998 437.40022216932476 798.8001269538998 361.8807786429747Q798.8001269538998 285.1613033781497 769.7001110846624 218.08069136216855Q740.6000952154249 151.00007934618742 689.1000555423311 100.10005554233119Q637.6000158692375 49.20003173847497 570.4258823838335 20.600015869237485Q503.25174889842947 -8 427.02581890688356 -8Q350.19987304610015 -8 283.1998333730064 20.200031738474966Q216.19979369991273 48.40006347694993 165.2997698960565 98.90010315004363Q114.39974609220027 149.40014282313734 85.7997302229628 216.585334161001Q57.199714353725305 283.77052549886463 57.199714353725305 361.99101145080436ZM167.20130127747362 361.57646038786Q167.20130127747362 306.0004760771245 187.3789728195227 257.72292752166595Q207.55664436157176 209.44537896620733 243.578687173248 172.723324252603Q279.6007299849242 136.00126953899866 327.13102508611485 115.40137268904229Q374.6613201873055 94.80147583908594 429.65955549175555 94.80147583908594Q484.1997143537253 94.80147583908594 531.2994525113068 115.40137268904229Q578.3991906688883 136.00126953899866 613.5476350547167 172.74647926297393Q648.6960794405451 209.4916889869492 668.7473097353484 257.79986191096293Q688.7985400301516 306.1080348349766 688.7985400301516 361.8394204305542Q688.7985400301516 417.799968261525 668.4986511148139 466.5997381575815Q648.1987621994763 515.399508053638 612.6646961901067 552.3020360875039Q577.1306301807373 589.2045641213697 529.73717754514 610.0017504412292Q482.3437249095426 630.7989367610886 427.5999365230501 630.7989367610886Q372.2078953050557 630.7989367610886 324.8938600980188 609.8732250231601Q277.57982489098197 588.9475132852317 241.99045993418414 551.7735265386723Q206.40109497738632 514.599539792113 186.80119812742998 465.8020686554287Q167.20130127747362 417.0045975187444 167.20130127747362 361.57646038786Z"/>
    <path transform="translate(2236,0)" d="M294.6006506387368 725.6004126001745Q404.8008410695866 725.6004126001745 468.20102356581765 680.7003491232247Q531.6012060620487 635.8002856462747 531.6012060620487 542.6003332539872Q531.6012060620487 483 504.3009600888677 440.0998968499564Q477.0007141156867 397.19979369991273 428.3003649924621 373.6998333730064Q379.6000158692375 350.19987304610015 313.9996826152503 347.3999841307625L298.19939696897563 403.8008410695866Q374.799968261525 402.20090454653655 435.3003649924621 377.8008807426803Q495.8007617233992 353.40085693882406 531.4009759581052 309.7007458541617Q567.0011901928112 266.00063476949936 567.0011901928112 205.80044433864953Q567.0011901928112 150.60025390779973 546.7011425850988 111.50015869237484Q526.4010949773864 72.40006347694994 491.90101563119896 47.70003173847497Q457.40093628501154 23 413.8008410695866 11.5Q370.2007458541617 0 323.2006665079743 0H102.19971435372531V725.6004126001745ZM314.00055542331194 412.20090454653655Q370.200031738475 412.20090454653655 395.89982543838767 444.2006665079743Q421.5996191383004 476.20042846941203 421.5996191383004 520.3999841307625Q421.5996191383004 573.5993810997381 388.4999206538126 598.1991589304134Q355.40022216932476 622.7989367610886 299.6007299849242 622.7989367610886H208.8012378005237V412.20090454653655ZM318.20058716178687 99.00142823137348Q356.6003332539872 99.00142823137348 388.2001110846624 110.3013171467111Q419.79988891533765 121.60120606204872 438.3997460922003 145.5009918273427Q456.9996032690629 169.40077759263667 456.9996032690629 205.0004760771245Q456.9996032690629 245.00015869237484 435.3997460922003 267.4999206538126Q413.79988891533765 289.9996826152503 380.30008728080617 299.6995556613505Q346.8002856462747 309.3994287074506 311.0004760771245 309.3994287074506H208.8012378005237V99.00142823137348Z"/>
    <path transform="translate(2860,0)" d="M27.599381099738153 0 346.7998889153376 755.4003808616995H353.19995239228757L672.400460207887 0H549.5986669840514L317.99944457668806 587.9980163453146L394.6005712925494 638.7988574149012L133.00087280806156 0ZM221.80068237721179 271.99976196143774H480.39919066888837L516.5997778306753 180.398555899389H190.00015869237484Z"/>
    <path transform="translate(3560,0)" d="M102.19971435372531 725.6004126001745H208.8012378005237V102.80147583908594H572.0005554233119V0H102.19971435372531Z"/>
  </g>
</svg>