<?xml version="1.0" encoding="UTF-8" standalone="no"?>
<svg
   xmlns="http://www.w3.org/2000/svg"
   version="1.1"
   width="250"
   height="48.189"
   viewBox="52 8 260 32">
<!-- SIMPLE (white) -->
<g style="fill:#ffffff;stroke:none">
  <path d="m 64.874,17.203 c -0.773,-0.407 -1.606,-0.752 -2.501,-1.037 -0.895,-0.285 -1.759,-0.427 -2.593,-0.427 -1.139,0 -2.043,0.259 -2.714,0.778 -0.671,0.519 -1.006,1.225 -1.006,2.12 0,0.631 0.223,1.18 0.671,1.647 0.447,0.468 1.026,0.875 1.738,1.22 0.711,0.346 1.464,0.671 2.257,0.976 0.671,0.244 1.336,0.534 1.998,0.869 0.661,0.335 1.261,0.747 1.799,1.235 0.539,0.487 0.966,1.093 1.281,1.815 0.315,0.722 0.473,1.601 0.473,2.638 0,1.18 -0.29,2.247 -0.869,3.202 -0.58,0.956 -1.414,1.714 -2.501,2.272 -1.088,0.56 -2.405,0.839 -3.95,0.839 -0.936,0 -1.845,-0.106 -2.73,-0.32 -0.884,-0.214 -1.718,-0.498 -2.501,-0.854 -0.783,-0.355 -1.49,-0.747 -2.12,-1.174 l 1.464,-2.531 c 0.488,0.346 1.047,0.676 1.678,0.991 0.63,0.315 1.286,0.564 1.967,0.747 0.681,0.183 1.327,0.274 1.937,0.274 0.671,0 1.332,-0.117 1.982,-0.351 0.65,-0.233 1.189,-0.6 1.617,-1.098 0.427,-0.498 0.641,-1.154 0.641,-1.968 0,-0.691 -0.188,-1.275 -0.564,-1.754 -0.376,-0.478 -0.875,-0.889 -1.495,-1.234 -0.621,-0.346 -1.286,-0.651 -1.998,-0.916 -0.691,-0.264 -1.393,-0.559 -2.104,-0.884 -0.712,-0.325 -1.373,-0.717 -1.982,-1.174 -0.61,-0.458 -1.104,-1.026 -1.479,-1.708 -0.376,-0.681 -0.564,-1.52 -0.564,-2.516 0,-1.179 0.279,-2.211 0.838,-3.096 0.559,-0.884 1.337,-1.581 2.333,-2.089 0.996,-0.508 2.145,-0.793 3.446,-0.854 1.484,0 2.775,0.183 3.874,0.549 1.098,0.366 2.074,0.803 2.928,1.312 z" />
  <path d="m 71.919,12.963 h 3.264 v 22.143 h -3.264 z" />
  <path d="m 98.485,20.4205 5.856,-8.1895 h 0.061 v 22.875 h -3.233 V 21.561648 L 93.209,32.819 H 93.148 L 85.371005,22.021242 85.371,35.106 H 82.228 V 12.231 h 0.031 l 10.967832,15.542955 z" />
  <path d="m 117.547,12.963 c 1.647,0 3.055,0.28 4.224,0.839 1.169,0.56 2.063,1.357 2.684,2.394 0.62,1.037 0.93,2.298 0.93,3.782 0,0.875 -0.132,1.738 -0.396,2.592 -0.264,0.854 -0.686,1.632 -1.266,2.333 -0.58,0.701 -1.347,1.261 -2.303,1.678 -0.956,0.417 -2.115,0.625 -3.477,0.625 h -3.233 v 7.899 h -3.264 V 12.963 Z m 0.396,11.102 c 0.813,0 1.495,-0.137 2.043,-0.412 0.549,-0.274 0.981,-0.625 1.296,-1.052 0.315,-0.427 0.539,-0.869 0.671,-1.327 0.132,-0.458 0.198,-0.87 0.198,-1.235 0,-0.407 -0.066,-0.839 -0.198,-1.296 -0.132,-0.457 -0.351,-0.884 -0.656,-1.281 -0.305,-0.396 -0.722,-0.722 -1.25,-0.976 -0.529,-0.254 -1.189,-0.381 -1.982,-0.381 h -3.355 v 7.96 z" />
  <path d="m 130.662,12.963 h 3.264 v 19.001 h 11.071 v 3.142 h -14.335 z" />
  <path d="m 150.579,12.963 h 14.547 v 3.142 H 153.84 v 6.313 h 10.035 v 3.141 H 153.84 v 6.405 h 11.713 v 3.142 H 150.578 V 12.963 Z" />
</g>
<!-- MOTION (orange) -->
<g style="fill:#ff6900;stroke:none">
  <path d="M 171.149,35.106 V 12.353 h 0.031 L 182.03188,27.756834 193.018,12.353 h 0.061 v 22.753 h -2.928 l 0,-14.287854 -8.143,11.512854 h -0.061 l -7.93,-11.051123 0,13.826123 z" />
  <path d="m 198.66,24.095 c 0,-1.525 0.29,-2.963 0.87,-4.315 0.578,-1.352 1.387,-2.552 2.424,-3.599 1.037,-1.047 2.231,-1.871 3.584,-2.47 1.352,-0.6 2.811,-0.9 4.377,-0.9 1.545,0 2.994,0.3 4.346,0.9 1.353,0.6 2.552,1.423 3.6,2.47 1.047,1.047 1.865,2.247 2.455,3.599 0.59,1.353 0.885,2.791 0.885,4.315 0,1.566 -0.295,3.03 -0.885,4.392 -0.59,1.363 -1.408,2.559 -2.455,3.584 -1.048,1.027 -2.247,1.83 -3.6,2.41 -1.352,0.579 -2.801,0.869 -4.346,0.869 -1.566,0 -3.025,-0.285 -4.377,-0.854 -1.353,-0.57 -2.547,-1.363 -3.584,-2.379 -1.037,-1.018 -1.846,-2.207 -2.424,-3.569 -0.58,-1.362 -0.87,-2.846 -0.87,-4.453 z m 3.049,0.031 c 0,1.16 0.214,2.242 0.641,3.248 0.428,1.008 1.017,1.896 1.77,2.67 0.752,0.772 1.627,1.377 2.623,1.814 0.996,0.437 2.074,0.656 3.232,0.656 1.139,0 2.206,-0.219 3.203,-0.656 0.996,-0.438 1.86,-1.042 2.592,-1.814 0.732,-0.773 1.313,-1.662 1.738,-2.67 0.428,-1.006 0.641,-2.099 0.641,-3.278 0,-1.159 -0.213,-2.251 -0.641,-3.278 -0.426,-1.027 -1.017,-1.926 -1.769,-2.699 -0.753,-0.773 -1.627,-1.377 -2.623,-1.815 -0.997,-0.437 -2.063,-0.656 -3.202,-0.656 -1.159,0 -2.237,0.224 -3.233,0.671 -0.996,0.448 -1.87,1.058 -2.622,1.83 -0.754,0.773 -1.332,1.673 -1.739,2.699 -0.407,1.026 -0.611,2.119 -0.611,3.278 z" />
  <path d="m 225.165,13.055 h 14.639 v 2.836 h -5.916 v 19.215 h -2.959 V 15.891 h -5.764 z" />
  <path d="m 245.112,13.055 h 2.959 v 22.051 h -2.959 z" />
  <path d="m 253.653,24.095 c 0,-1.525 0.289,-2.963 0.869,-4.315 0.578,-1.352 1.387,-2.552 2.424,-3.599 1.037,-1.047 2.232,-1.871 3.584,-2.47 1.352,-0.599 2.811,-0.9 4.377,-0.9 1.545,0 2.994,0.3 4.346,0.9 1.352,0.6 2.553,1.423 3.6,2.47 1.047,1.047 1.865,2.247 2.455,3.599 0.59,1.353 0.885,2.791 0.885,4.315 0,1.566 -0.295,3.03 -0.885,4.392 -0.59,1.363 -1.408,2.559 -2.455,3.584 -1.047,1.027 -2.248,1.83 -3.6,2.41 -1.352,0.579 -2.801,0.869 -4.346,0.869 -1.566,0 -3.025,-0.285 -4.377,-0.854 -1.352,-0.57 -2.547,-1.363 -3.584,-2.379 -1.037,-1.018 -1.846,-2.207 -2.424,-3.569 -0.58,-1.362 -0.869,-2.846 -0.869,-4.453 z m 3.049,0.031 c 0,1.16 0.215,2.242 0.641,3.248 0.428,1.008 1.018,1.896 1.77,2.67 0.752,0.772 1.627,1.377 2.623,1.814 0.996,0.437 2.074,0.656 3.232,0.656 1.139,0 2.207,-0.219 3.203,-0.656 0.996,-0.437 1.859,-1.042 2.592,-1.814 0.732,-0.773 1.313,-1.662 1.738,-2.67 0.428,-1.006 0.641,-2.099 0.641,-3.278 0,-1.159 -0.213,-2.251 -0.641,-3.278 -0.426,-1.027 -1.016,-1.926 -1.768,-2.699 -0.754,-0.773 -1.627,-1.377 -2.623,-1.815 -0.998,-0.437 -2.064,-0.656 -3.203,-0.656 -1.16,0 -2.236,0.224 -3.232,0.671 -0.998,0.448 -1.871,1.058 -2.623,1.83 -0.754,0.773 -1.332,1.673 -1.738,2.699 -0.409,1.026 -0.612,2.119 -0.612,3.278 z" />
  <path d="M 300.866,35.807 284.67343,19.3827 284.732,35.105 h -2.959 V 12.384 h 0.152 L 298.08887,29.014591 298.03,13.055 h 2.928 v 22.752 z" />
</g>
</svg>
