<?xml version="1.0" encoding="UTF-8" standalone="no"?>
<svg xmlns="http://www.w3.org/2000/svg" version="1.1"
     width="444" height="64" viewBox="0 0 444 64">

  <!-- Logo circle (left, 64x64) -->
  <svg x="0" y="0" width="64" height="64" viewBox="0 0 512 512">
    <circle cx="256" cy="256" r="220" fill="#000000" stroke="#ffffff" stroke-width="16"/>
    <g transform="translate(256, 256) scale(8.125) translate(-43, -160)">
      <path d="m 33.530148,163.53827 a 9.3221491,9.3221491 0 0 1 -2.205948,-3.96552 13.983223,13.983223 0 0 1 9.887632,-17.12587 21.524999,21.524999 0 0 1 16.549754,2.27683 1.7803804,1.7803804 0 0 1 -1.816132,3.06279 17.964256,17.964256 0 0 0 -13.812034,-1.90022 10.422479,10.422479 0 0 0 -7.369806,12.76488 5.7614049,5.7614049 0 0 0 1.363351,2.45082 1.7803772,1.7803772 0 1 1 -2.596817,2.43629 z" fill="#ffffff"/>
      <path d="m 46.369631,169.57847 a 9.3221491,9.3221491 0 0 1 -3.965502,2.20595 13.983223,13.983223 0 0 1 -17.125881,-9.88764 21.524999,21.524999 0 0 1 2.276847,-16.54975 1.7803766,1.7803766 0 0 1 3.06277,1.81615 17.964256,17.964256 0 0 0 -1.900202,13.81201 10.422479,10.422479 0 0 0 12.764878,7.36983 5.7614049,5.7614049 0 0 0 2.450814,-1.36336 1.780372,1.780372 0 1 1 2.436276,2.59681 z" fill="#00d528"/>
      <path d="m 52.409852,156.73899 a 9.3221491,9.3221491 0 0 1 2.205949,3.96551 13.983223,13.983223 0 0 1 -9.887633,17.12588 21.524999,21.524999 0 0 1 -16.549754,-2.27685 1.7803723,1.7803723 0 0 1 1.816133,-3.06277 17.964256,17.964256 0 0 0 13.812033,1.9002 10.422479,10.422479 0 0 0 7.369806,-12.76488 5.7614049,5.7614049 0 0 0 -1.363351,-2.45082 1.780372,1.780372 0 1 1 2.596817,-2.43627 z" fill="#ffffff"/>
      <path d="m 39.570369,150.69876 a 9.3221491,9.3221491 0 0 1 3.965502,-2.20595 13.983223,13.983223 0 0 1 17.125881,9.88764 21.524999,21.524999 0 0 1 -2.276847,16.54976 1.780372,1.780372 0 0 1 -3.06277,-1.81613 17.964256,17.964256 0 0 0 1.900202,-13.81204 10.422479,10.422479 0 0 0 -12.764878,-7.3698 5.7614049,5.7614049 0 0 0 -2.450814,1.36334 1.7803735,1.7803735 0 1 1 -2.436276,-2.59682 z" fill="#ffffff"/>
    </g>
  </svg>

  <!-- SIMPLE (#ffffff) — h_scale: 0.998553 -->
  <g style="fill:#ffffff;stroke:none" transform="translate(72,48.848) scale(0.047931,-0.048000)">
    <path transform="translate(0,0)" d="M447 652Q419 664 374.0 676.5Q329 689 282 689Q205 689 158.5 649.5Q112 610 112 552Q112 508 137.5 479.5Q163 451 203.5 431.5Q244 412 291 394Q327 381 362.0 365.0Q397 349 426.0 326.5Q455 304 472.0 270.5Q489 237 489 189Q489 128 461.0 84.0Q433 40 385.0 16.0Q337 -8 277 -8Q220 -8 176.0 6.5Q132 21 103.0 38.0Q74 55 61 63L71 81Q92 66 124.0 49.5Q156 33 194.5 21.5Q233 10 273 10Q322 10 367.0 29.5Q412 49 440.5 88.5Q469 128 469 188Q469 247 441.0 282.5Q413 318 369.5 339.5Q326 361 278 379Q243 391 210.0 405.5Q177 420 150.5 439.0Q124 458 108.0 485.0Q92 512 92 549Q92 596 117.0 631.0Q142 666 184.5 686.0Q227 706 280 706Q318 706 368.5 695.0Q419 684 455 667Z"/>
    <path transform="translate(551,0)" d="M119 702H139V0H119Z"/>
    <path transform="translate(809,0)" d="M119 0V714H120L452 242H443L775 714H776V0H756V665L758 657L448 220H446L136 657L139 664V0Z"/>
    <path transform="translate(1703,0)" d="M265 702Q323 702 368.5 682.0Q414 662 440.0 620.5Q466 579 466 515Q466 477 453.5 441.5Q441 406 415.0 378.0Q389 350 348.0 333.5Q307 317 250 317H139V0H119V702ZM250 336Q308 336 346.5 354.0Q385 372 406.5 400.0Q428 428 437.5 459.0Q447 490 447 517Q447 557 433.5 588.0Q420 619 396.0 640.0Q372 661 338.0 672.0Q304 683 264 683H139V336Z"/>
    <path transform="translate(2233,0)" d="M119 702H139V19H541V0H119Z"/>
    <path transform="translate(2824,0)" d="M119 702H538V683H139V364H499V345H139V19H552V0H119Z"/>
  </g>
  <!-- GLOBAL (#00d528) — h_scale: 1.045768 -->
  <g style="fill:#00d528;stroke:none" transform="translate(239.520,48.848) scale(0.050197,-0.048000)">
    <path transform="translate(0,0)" d="M637 43Q617 32 592.5 22.5Q568 13 540.5 6.0Q513 -1 485.5 -4.5Q458 -8 432 -8Q351 -8 284.5 19.5Q218 47 171.0 96.0Q124 145 99.0 210.0Q74 275 74 349Q74 424 102.0 489.5Q130 555 179.0 604.5Q228 654 293.0 682.0Q358 710 432 710Q483 710 529.5 696.5Q576 683 617 659L607 642Q582 657 553.5 668.0Q525 679 494.5 685.0Q464 691 433 691Q362 691 300.5 664.0Q239 637 192.5 590.0Q146 543 120.0 481.0Q94 419 94 349Q94 278 117.5 217.0Q141 156 185.0 109.5Q229 63 291.0 37.0Q353 11 430 11Q475 11 527.0 22.5Q579 34 617 56V285H447V304H637Z"/>
    <path transform="translate(735,0)" d="M119 702H139V19H541V0H119Z"/>
    <path transform="translate(1326,0)" d="M74 350Q74 424 102.0 489.5Q130 555 179.0 604.5Q228 654 293.0 682.0Q358 710 432 710Q506 710 571.0 682.0Q636 654 685.5 604.5Q735 555 763.5 489.5Q792 424 792 350Q792 276 763.5 211.0Q735 146 685.5 97.0Q636 48 571.0 20.0Q506 -8 432 -8Q358 -8 293.0 18.5Q228 45 179.0 93.0Q130 141 102.0 206.5Q74 272 74 350ZM94 349Q94 279 120.0 217.5Q146 156 192.0 109.5Q238 63 299.0 37.0Q360 11 429 11Q500 11 562.0 37.0Q624 63 671.0 109.5Q718 156 745.0 217.5Q772 279 772 350Q772 420 745.0 481.5Q718 543 671.5 590.0Q625 637 563.5 664.0Q502 691 432 691Q360 691 298.5 663.5Q237 636 191.0 588.0Q145 540 119.5 478.5Q94 417 94 349Z"/>
    <path transform="translate(2191,0)" d="M258 702Q357 702 410.0 660.5Q463 619 463 523Q463 483 449.5 446.0Q436 409 407.5 383.0Q379 357 332 349V356Q376 350 414.0 327.0Q452 304 476.0 267.0Q500 230 500 181Q500 136 482.0 102.5Q464 69 434.0 46.0Q404 23 365.5 11.5Q327 0 286 0H119V702ZM283 361Q368 361 405.5 406.5Q443 452 443 522Q443 609 393.0 646.0Q343 683 259 683H139V361ZM284 18Q337 18 381.5 36.0Q426 54 453.0 89.5Q480 125 480 178Q480 235 450.0 271.5Q420 308 375.0 325.0Q330 342 284 342H139V18Z"/>
    <path transform="translate(2764,0)" d="M63 0 354 734H356L647 0H625L349 701L362 704L83 0ZM184 281H527L529 263H182Z"/>
    <path transform="translate(3473,0)" d="M119 702H139V19H541V0H119Z"/>
  </g>
</svg>